<svg width="30" height="30" viewBox="0 0 30 30" fill="none" xmlns="http://www.w3.org/2000/svg">
<path d="M16.1887 4.01786C16.5086 2.86702 17.2316 1.84768 18.2438 1.1203C19.256 0.392923 20.5 -0.00119067 21.7798 2.70216e-06H21.924C22.23 2.70216e-06 22.5234 0.112885 22.7398 0.313817C22.9562 0.514748 23.0777 0.78727 23.0777 1.07143C23.0777 1.35559 22.9562 1.62811 22.7398 1.82904C22.5234 2.02998 22.23 2.14286 21.924 2.14286H21.7798C21.0124 2.1428 20.2668 2.37956 19.6601 2.81594C19.0535 3.25232 18.6201 3.86356 18.4283 4.55357C18.3518 4.82885 18.1607 5.06464 17.897 5.20906C17.6333 5.35348 17.3186 5.3947 17.0222 5.32366C16.7258 5.25262 16.4719 5.07513 16.3164 4.83025C16.1609 4.58536 16.1165 4.29314 16.193 4.01786H16.1887ZM29.899 22.7129C29.8124 22.5293 29.6726 22.3717 29.4952 22.2576C27.0479 20.696 26.5388 18.0321 26.5388 16.0714C26.5388 13.7049 28.4814 11.6437 29.6394 10.6245C29.7533 10.5244 29.844 10.4038 29.906 10.27C29.968 10.1362 30 9.99208 30 9.84642C30 9.70077 29.968 9.55665 29.906 9.42286C29.844 9.28907 29.7533 9.16843 29.6394 9.0683C27.8108 7.46518 24.7823 6.42857 21.924 6.42857C19.8708 6.43027 17.8639 6.99546 16.1555 8.05312C14.1627 6.81209 11.7665 6.25473 9.37899 6.47692C6.99153 6.6991 4.76204 7.68694 3.07399 9.27053C2.06484 10.2273 1.27304 11.3627 0.745608 12.6092C0.218178 13.8557 -0.034119 15.1879 0.00370204 16.5268C0.0603153 18.7866 0.601395 21.0133 1.59532 23.0767C2.58924 25.1401 4.01606 26.9988 5.79239 28.5442C6.86216 29.4828 8.27931 30.004 9.75103 30H22.3956C23.1824 30.0014 23.9611 29.8527 24.6835 29.5631C25.4059 29.2735 26.0565 28.8492 26.5951 28.3165C27.5927 27.3194 28.4557 26.213 29.1649 25.0219C30.1773 23.3036 30.0475 23.0357 29.899 22.7129Z" fill="black"/>
</svg>
