<svg width="21" height="20" viewBox="0 0 21 20" fill="none" xmlns="http://www.w3.org/2000/svg">
<path d="M0 10C0 4.47715 4.47715 0 10 0H11C16.5228 0 21 4.47715 21 10C21 15.5228 16.5228 20 11 20H10C4.47715 20 0 15.5228 0 10Z" fill="#0D645D"/>
<path d="M9.62219 4.30066L6.71135 5.39733C6.04052 5.64816 5.49219 6.4415 5.49219 7.15316V11.4873C5.49219 12.1757 5.94719 13.0798 6.50135 13.494L9.00969 15.3665C9.83219 15.9848 11.1855 15.9848 12.008 15.3665L14.5164 13.494C15.0705 13.0798 15.5255 12.1757 15.5255 11.4873V7.15316C15.5255 6.43566 14.9772 5.64233 14.3064 5.3915L11.3955 4.30066C10.8997 4.11983 10.1064 4.11983 9.62219 4.30066Z" stroke="#FDFEFE" stroke-width="1.5" stroke-linecap="round" stroke-linejoin="round"/>
</svg>
