<svg width="40" height="40" viewBox="0 0 40 40" fill="none" xmlns="http://www.w3.org/2000/svg">
<path d="M0 19.9983C0 8.95354 8.95354 0 19.9983 0C31.043 0 39.9966 8.95354 39.9966 19.9983C39.9966 31.043 31.043 39.9966 19.9983 39.9966C8.95354 39.9966 0 31.043 0 19.9983Z" fill="#FAC5C3"/>
<path d="M18.4862 10.2276L13.4962 12.1076C12.3462 12.5376 11.4062 13.8976 11.4062 15.1176V22.5476C11.4062 23.7276 12.1862 25.2776 13.1362 25.9876L17.4362 29.1976C18.8462 30.2576 21.1663 30.2576 22.5763 29.1976L26.8762 25.9876C27.8262 25.2776 28.6063 23.7276 28.6063 22.5476V15.1176C28.6063 13.8876 27.6663 12.5276 26.5163 12.0976L21.5262 10.2276C20.6762 9.91762 19.3162 9.91762 18.4862 10.2276Z" stroke="#EE443F" stroke-width="1.5" stroke-linecap="round" stroke-linejoin="round"/>
</svg>
