<svg width="40" height="40" viewBox="0 0 40 40" fill="none" xmlns="http://www.w3.org/2000/svg">
<path d="M0 19.9983C0 8.95354 8.95354 0 19.9983 0C31.043 0 39.9966 8.95354 39.9966 19.9983C39.9966 31.043 31.043 39.9966 19.9983 39.9966C8.95354 39.9966 0 31.043 0 19.9983Z" fill="#E7F0EF"/>
<path d="M28 14.998V24.998C28 28.998 27 29.998 23 29.998H17C13 29.998 12 28.998 12 24.998V14.998C12 10.998 13 9.99805 17 9.99805H23C27 9.99805 28 10.998 28 14.998Z" stroke="#0D645D" stroke-width="1.5" stroke-linecap="round" stroke-linejoin="round"/>
<path d="M22 13.498H18" stroke="#0D645D" stroke-width="1.5" stroke-linecap="round" stroke-linejoin="round"/>
<path d="M20.0031 27.098C20.8592 27.098 21.5531 26.4041 21.5531 25.548C21.5531 24.692 20.8592 23.998 20.0031 23.998C19.1471 23.998 18.4531 24.692 18.4531 25.548C18.4531 26.4041 19.1471 27.098 20.0031 27.098Z" stroke="#0D645D" stroke-width="1.5" stroke-linecap="round" stroke-linejoin="round"/>
</svg>
