<svg width="20" height="20" viewBox="0 0 20 20" fill="none" xmlns="http://www.w3.org/2000/svg">
<g clip-path="url(#clip0_471_5593)">
<path d="M15.1113 9.16669C15.5963 13.6463 17.5 15 17.5 15H2.5C2.5 15 5 13.2222 5 7.00002C5 5.58553 5.52678 4.22898 6.46447 3.22878C7.40215 2.22859 8.67392 1.66669 10 1.66669C10.2811 1.66669 10.5598 1.69194 10.8333 1.74126" stroke="#808080" stroke-width="1.5" stroke-linecap="round" stroke-linejoin="round"/>
<path d="M15.8333 6.66669C17.214 6.66669 18.3333 5.5474 18.3333 4.16669C18.3333 2.78598 17.214 1.66669 15.8333 1.66669C14.4525 1.66669 13.3333 2.78598 13.3333 4.16669C13.3333 5.5474 14.4525 6.66669 15.8333 6.66669Z" stroke="#808080" stroke-width="1.5" stroke-linecap="round" stroke-linejoin="round"/>
<path d="M11.4412 17.5C11.2947 17.7526 11.0844 17.9622 10.8314 18.1079C10.5784 18.2537 10.2915 18.3304 9.99953 18.3304C9.70754 18.3304 9.42069 18.2537 9.16767 18.1079C8.91466 17.9622 8.70437 17.7526 8.55786 17.5" stroke="#808080" stroke-width="1.5" stroke-linecap="round" stroke-linejoin="round"/>
</g>
<defs>
<clipPath id="clip0_471_5593">
<rect width="20" height="20" fill="white"/>
</clipPath>
</defs>
</svg>
