<svg width="12" height="12" viewBox="0 0 12 12" fill="none" xmlns="http://www.w3.org/2000/svg">
<g clip-path="url(#clip0_828_308)">
<path d="M10.8653 8.99947L6.86568 2.00007C6.77847 1.84618 6.652 1.71819 6.49918 1.62914C6.34635 1.54008 6.17264 1.49316 5.99576 1.49316C5.81888 1.49316 5.64517 1.54008 5.49234 1.62914C5.33951 1.71819 5.21304 1.84618 5.12583 2.00007L1.12617 8.99947C1.03802 9.15214 0.9918 9.3254 0.99219 9.50168C0.99258 9.67797 1.03957 9.85102 1.1284 10.0033C1.21722 10.1556 1.34473 10.2817 1.49799 10.3688C1.65125 10.4559 1.82482 10.5009 2.0011 10.4993H10.0004C10.1759 10.4992 10.3482 10.4528 10.5 10.365C10.6519 10.2772 10.778 10.1509 10.8656 9.99894C10.9532 9.84697 10.9994 9.67461 10.9993 9.49917C10.9993 9.32374 10.9531 9.1514 10.8653 8.99947Z" stroke="#FFBB33" stroke-width="0.999915" stroke-linecap="round" stroke-linejoin="round"/>
<path d="M6 4.5V6.49983" stroke="#FFBB33" stroke-width="0.999915" stroke-linecap="round" stroke-linejoin="round"/>
<path d="M6 8.49902H6.005" stroke="#FFBB33" stroke-width="0.999915" stroke-linecap="round" stroke-linejoin="round"/>
</g>
<path d="M11.8486 0.150391V11.8486H0.150391V0.150391H11.8486Z" stroke="#FFAA00" stroke-width="0.3"/>
<defs>
<clipPath id="clip0_828_308">
<path d="M0 0H11.999V11.999H0V0Z" fill="white"/>
</clipPath>
</defs>
</svg>
