<svg width="12" height="12" viewBox="0 0 12 12" fill="none" xmlns="http://www.w3.org/2000/svg">
<rect x="0.15" y="0.15" width="11.699" height="11.699" stroke="#43B75D" stroke-width="0.3"/>
<path d="M5.24282 1.11526L2.74804 2.05518C2.17308 2.27017 1.70312 2.95011 1.70312 3.56005V7.27474C1.70312 7.86469 2.09309 8.63962 2.56805 8.99459L4.71787 10.5995C5.42281 11.1294 6.58271 11.1294 7.28765 10.5995L9.43746 8.99459C9.91242 8.63962 10.3024 7.86469 10.3024 7.27474V3.56005C10.3024 2.94511 9.83243 2.26517 9.25748 2.05018L6.76269 1.11526C6.33773 0.960277 5.65779 0.960277 5.24282 1.11526Z" stroke="#43B75D" stroke-width="1.5" stroke-linecap="round" stroke-linejoin="round"/>
<path d="M4.52344 5.93473L5.32837 6.73966L7.47819 4.58984" stroke="#43B75D" stroke-width="1.5" stroke-linecap="round" stroke-linejoin="round"/>
</svg>
