<svg width="60" height="12" viewBox="0 0 60 12" fill="none" xmlns="http://www.w3.org/2000/svg">
<path d="M2.87001 8C2.92501 7.755 2.82501 7.405 2.65001 7.23L1.43501 6.015C1.05501 5.635 0.905006 5.23 1.01501 4.88C1.13001 4.53 1.48501 4.29 2.01501 4.2L3.57501 3.94C3.80001 3.9 4.07501 3.7 4.18001 3.495L5.04001 1.77C5.29001 1.275 5.63001 1 6.00001 1C6.37001 1 6.71001 1.275 6.96001 1.77L7.82001 3.495C7.88501 3.625 8.02001 3.75 8.16501 3.835L2.78001 9.22C2.71001 9.29 2.59001 9.225 2.61001 9.125L2.87001 8Z" fill="#FFBB33"/>
<path d="M9.34999 7.22995C9.16999 7.40995 9.06999 7.75495 9.12999 7.99995L9.47499 9.50495C9.61999 10.1299 9.52999 10.5999 9.21999 10.8249C9.09499 10.9149 8.94499 10.9599 8.76999 10.9599C8.51499 10.9599 8.21499 10.8649 7.88499 10.6699L6.41999 9.79995C6.18999 9.66495 5.80999 9.66495 5.57999 9.79995L4.11499 10.6699C3.55999 10.9949 3.08499 11.0499 2.77999 10.8249C2.66499 10.7399 2.57999 10.6249 2.52499 10.4749L8.60499 4.39495C8.83499 4.16495 9.15999 4.05995 9.47499 4.11495L9.97999 4.19995C10.51 4.28995 10.865 4.52995 10.98 4.87995C11.09 5.22995 10.94 5.63495 10.56 6.01495L9.34999 7.22995Z" fill="#FFBB33"/>
<path d="M14.87 8C14.925 7.755 14.825 7.405 14.65 7.23L13.435 6.015C13.055 5.635 12.905 5.23 13.015 4.88C13.13 4.53 13.485 4.29 14.015 4.2L15.575 3.94C15.8 3.9 16.075 3.7 16.18 3.495L17.04 1.77C17.29 1.275 17.63 1 18 1C18.37 1 18.71 1.275 18.96 1.77L19.82 3.495C19.885 3.625 20.02 3.75 20.165 3.835L14.78 9.22C14.71 9.29 14.59 9.225 14.61 9.125L14.87 8Z" fill="#FFBB33"/>
<path d="M21.35 7.22995C21.17 7.40995 21.07 7.75495 21.13 7.99995L21.475 9.50495C21.62 10.1299 21.53 10.5999 21.22 10.8249C21.095 10.9149 20.945 10.9599 20.77 10.9599C20.515 10.9599 20.215 10.8649 19.885 10.6699L18.42 9.79995C18.19 9.66495 17.81 9.66495 17.58 9.79995L16.115 10.6699C15.56 10.9949 15.085 11.0499 14.78 10.8249C14.665 10.7399 14.58 10.6249 14.525 10.4749L20.605 4.39495C20.835 4.16495 21.16 4.05995 21.475 4.11495L21.98 4.19995C22.51 4.28995 22.865 4.52995 22.98 4.87995C23.09 5.22995 22.94 5.63495 22.56 6.01495L21.35 7.22995Z" fill="#FFBB33"/>
<path d="M26.87 8C26.925 7.755 26.825 7.405 26.65 7.23L25.435 6.015C25.055 5.635 24.905 5.23 25.015 4.88C25.13 4.53 25.485 4.29 26.015 4.2L27.575 3.94C27.8 3.9 28.075 3.7 28.18 3.495L29.04 1.77C29.29 1.275 29.63 1 30 1C30.37 1 30.71 1.275 30.96 1.77L31.82 3.495C31.885 3.625 32.02 3.75 32.165 3.835L26.78 9.22C26.71 9.29 26.59 9.225 26.61 9.125L26.87 8Z" fill="#FFBB33"/>
<path d="M33.35 7.22995C33.17 7.40995 33.07 7.75495 33.13 7.99995L33.475 9.50495C33.62 10.1299 33.53 10.5999 33.22 10.8249C33.095 10.9149 32.945 10.9599 32.77 10.9599C32.515 10.9599 32.215 10.8649 31.885 10.6699L30.42 9.79995C30.19 9.66495 29.81 9.66495 29.58 9.79995L28.115 10.6699C27.56 10.9949 27.085 11.0499 26.78 10.8249C26.665 10.7399 26.58 10.6249 26.525 10.4749L32.605 4.39495C32.835 4.16495 33.16 4.05995 33.475 4.11495L33.98 4.19995C34.51 4.28995 34.865 4.52995 34.98 4.87995C35.09 5.22995 34.94 5.63495 34.56 6.01495L33.35 7.22995Z" fill="#FFBB33"/>
<path d="M38.87 8C38.925 7.755 38.825 7.405 38.65 7.23L37.435 6.015C37.055 5.635 36.905 5.23 37.015 4.88C37.13 4.53 37.485 4.29 38.015 4.2L39.575 3.94C39.8 3.9 40.075 3.7 40.18 3.495L41.04 1.77C41.29 1.275 41.63 1 42 1C42.37 1 42.71 1.275 42.96 1.77L43.82 3.495C43.885 3.625 44.02 3.75 44.165 3.835L38.78 9.22C38.71 9.29 38.59 9.225 38.61 9.125L38.87 8Z" fill="#FFBB33"/>
<path d="M45.35 7.22995C45.17 7.40995 45.07 7.75495 45.13 7.99995L45.475 9.50495C45.62 10.1299 45.53 10.5999 45.22 10.8249C45.095 10.9149 44.945 10.9599 44.77 10.9599C44.515 10.9599 44.215 10.8649 43.885 10.6699L42.42 9.79995C42.19 9.66495 41.81 9.66495 41.58 9.79995L40.115 10.6699C39.56 10.9949 39.085 11.0499 38.78 10.8249C38.665 10.7399 38.58 10.6249 38.525 10.4749L44.605 4.39495C44.835 4.16495 45.16 4.05995 45.475 4.11495L45.98 4.19995C46.51 4.28995 46.865 4.52995 46.98 4.87995C47.09 5.22995 46.94 5.63495 46.56 6.01495L45.35 7.22995Z" fill="#FFBB33"/>
<path d="M50.87 8C50.925 7.755 50.825 7.405 50.65 7.23L49.435 6.015C49.055 5.635 48.905 5.23 49.015 4.88C49.13 4.53 49.485 4.29 50.015 4.2L51.575 3.94C51.8 3.9 52.075 3.7 52.18 3.495L53.04 1.77C53.29 1.275 53.63 1 54 1C54.37 1 54.71 1.275 54.96 1.77L55.82 3.495C55.885 3.625 56.02 3.75 56.165 3.835L50.78 9.22C50.71 9.29 50.59 9.225 50.61 9.125L50.87 8Z" fill="#FFBB33"/>
<path d="M57.35 7.22995C57.17 7.40995 57.07 7.75495 57.13 7.99995L57.475 9.50495C57.62 10.1299 57.53 10.5999 57.22 10.8249C57.095 10.9149 56.945 10.9599 56.77 10.9599C56.515 10.9599 56.215 10.8649 55.885 10.6699L54.42 9.79995C54.19 9.66495 53.81 9.66495 53.58 9.79995L52.115 10.6699C51.56 10.9949 51.085 11.0499 50.78 10.8249C50.665 10.7399 50.58 10.6249 50.525 10.4749L56.605 4.39495C56.835 4.16495 57.16 4.05995 57.475 4.11495L57.98 4.19995C58.51 4.28995 58.865 4.52995 58.98 4.87995C59.09 5.22995 58.94 5.63495 58.56 6.01495L57.35 7.22995Z" fill="#FFBB33"/>
</svg>
