<svg width="40" height="40" viewBox="0 0 40 40" fill="none" xmlns="http://www.w3.org/2000/svg">
<path d="M0 19.9983C0 8.95354 8.95354 0 19.9983 0C31.043 0 39.9966 8.95354 39.9966 19.9983C39.9966 31.043 31.043 39.9966 19.9983 39.9966C8.95354 39.9966 0 31.043 0 19.9983Z" fill="#E7F0EF"/>
<path d="M25.9125 18.7179H22.8225V11.5179C22.8225 9.83794 21.9125 9.49794 20.8025 10.7579L20.0025 11.6679L13.2325 19.3679C12.3025 20.4179 12.6925 21.2779 14.0925 21.2779H17.1825V28.4779C17.1825 30.1579 18.0925 30.4979 19.2025 29.2379L20.0025 28.3279L26.7725 20.6279C27.7025 19.5779 27.3125 18.7179 25.9125 18.7179Z" fill="#0D645D"/>
</svg>
