<svg width="20" height="20" viewBox="0 0 20 20" fill="none" xmlns="http://www.w3.org/2000/svg">
<g clip-path="url(#clip0_471_5602)">
<path d="M3.33325 14.6667V8.66669C3.33325 7.56212 4.22868 6.66669 5.33325 6.66669H9.33325H12.3333H16.3333C17.4378 6.66669 18.3333 7.56212 18.3333 8.66669V14.6667C18.3333 15.7713 17.4378 16.6667 16.3333 16.6667H12.3333H9.33325H5.33325C4.22868 16.6667 3.33325 15.7713 3.33325 14.6667Z" stroke="#808080" stroke-width="1.5" stroke-linecap="round" stroke-linejoin="round"/>
<path d="M15.4167 11.675L15.4251 11.6658" stroke="#808080" stroke-width="1.5" stroke-linecap="round" stroke-linejoin="round"/>
<path d="M6.25 11.675L6.25833 11.6658" stroke="#808080" stroke-width="1.5" stroke-linecap="round" stroke-linejoin="round"/>
<path d="M3.33325 13.3333H2.83325C1.72868 13.3333 0.833252 12.4379 0.833252 11.3333V5.33331C0.833252 4.22874 1.72868 3.33331 2.83325 3.33331H13.8333C14.9378 3.33331 15.8333 4.22874 15.8333 5.33331V6.66665" stroke="#808080" stroke-width="1.5" stroke-linecap="round" stroke-linejoin="round"/>
<path d="M10.8333 13.3333C9.91286 13.3333 9.16667 12.5871 9.16667 11.6667C9.16667 10.7462 9.91286 10 10.8333 10C11.7538 10 12.5 10.7462 12.5 11.6667C12.5 12.5871 11.7538 13.3333 10.8333 13.3333Z" stroke="#808080" stroke-width="1.5" stroke-linecap="round" stroke-linejoin="round"/>
</g>
<defs>
<clipPath id="clip0_471_5602">
<rect width="20" height="20" fill="white"/>
</clipPath>
</defs>
</svg>
